<svg width="16" height="16" viewBox="0 0 16 16" fill="none" xmlns="http://www.w3.org/2000/svg">
<path d="M16 8C16 12.4183 12.4183 16 8 16C3.58172 16 0 12.4183 0 8C0 3.58172 3.58172 0 8 0C12.4183 0 16 3.58172 16 8Z" fill="#483EFF"/>
<path d="M8.19186 5.99C8.03186 6.18333 7.86519 6.39 7.69186 6.61C7.52519 6.83 7.36186 7.06 7.20186 7.3C7.04186 7.54 6.88852 7.78667 6.74186 8.04C6.59519 8.28667 6.46186 8.53333 6.34186 8.78H8.19186V5.99ZM9.37186 4.5V8.78H10.1519V9.77H9.37186V11.43H8.19186V9.77H5.15186V8.91C5.28519 8.61667 5.46186 8.28 5.68186 7.9C5.90852 7.52 6.15852 7.13 6.43186 6.73C6.70519 6.33 6.99519 5.93667 7.30186 5.55C7.60852 5.16333 7.91519 4.81333 8.22186 4.5H9.37186Z" fill="white"/>
</svg>
