<svg width="16" height="16" viewBox="0 0 16 16" fill="none" xmlns="http://www.w3.org/2000/svg">
<path d="M16 8C16 12.4183 12.4183 16 8 16C3.58172 16 0 12.4183 0 8C0 3.58172 3.58172 0 8 0C12.4183 0 16 3.58172 16 8Z" fill="#E96170"/>
<path d="M8.00072 3C8.65717 2.99938 9.30726 3.12855 9.91361 3.38008C10.52 3.6316 11.0706 4.00052 11.5338 4.46561C13.4887 6.42045 13.4887 9.57898 11.5338 11.534C9.5792 13.4887 6.42085 13.4887 4.46598 11.534C2.51134 9.57898 2.51134 6.42045 4.46598 4.46561C4.92955 4.00051 5.48048 3.63162 6.08709 3.38014C6.69371 3.12866 7.34404 2.99932 8.00072 3ZM10.2773 6.46153C10.2044 6.46799 10.1337 6.49614 10.0761 6.54091L7.26802 8.64783L5.96623 7.34583C5.68377 7.0516 5.12853 7.60706 5.42253 7.88952L6.96017 9.42713C7.0894 9.55636 7.31533 9.57251 7.46164 9.46313L10.5369 7.1566C10.7958 6.96829 10.6361 6.46591 10.3163 6.4613C10.3032 6.46063 10.2904 6.46086 10.2773 6.46153Z" fill="white"/>
</svg>
