<svg width="16" height="16" viewBox="0 0 16 16" fill="none" xmlns="http://www.w3.org/2000/svg">
<path d="M16 8C16 12.4183 12.4183 16 8 16C3.58172 16 0 12.4183 0 8C0 3.58172 3.58172 0 8 0C12.4183 0 16 3.58172 16 8Z" fill="#483EFF"/>
<path d="M7.59497 11.585C7.41497 11.585 7.2283 11.5717 7.03497 11.545C6.8483 11.525 6.6683 11.495 6.49497 11.455C6.3283 11.4217 6.17497 11.385 6.03497 11.345C5.89497 11.2983 5.7883 11.255 5.71497 11.215L5.95497 10.185C6.09497 10.2517 6.2983 10.3283 6.56497 10.415C6.83163 10.495 7.16163 10.535 7.55497 10.535C8.08163 10.535 8.46163 10.435 8.69497 10.235C8.9283 10.0283 9.04497 9.755 9.04497 9.415C9.04497 9.195 8.9983 9.01167 8.90497 8.865C8.8183 8.71833 8.69497 8.60167 8.53497 8.515C8.38163 8.42167 8.20163 8.35834 7.99497 8.325C7.79497 8.285 7.58163 8.265 7.35497 8.265H6.94497V7.285H7.44497C7.5983 7.285 7.75163 7.27167 7.90497 7.245C8.06497 7.21167 8.2083 7.15833 8.33497 7.085C8.46163 7.005 8.56497 6.90167 8.64497 6.775C8.72497 6.64833 8.76497 6.485 8.76497 6.285C8.76497 6.125 8.73497 5.98833 8.67497 5.875C8.61497 5.76167 8.53497 5.66833 8.43497 5.595C8.34163 5.52167 8.23163 5.46833 8.10497 5.435C7.9783 5.40167 7.84497 5.385 7.70497 5.385C7.40497 5.385 7.1383 5.43167 6.90497 5.525C6.67163 5.61167 6.46497 5.71167 6.28497 5.825L5.84497 4.925C5.9383 4.865 6.05163 4.80167 6.18497 4.735C6.3183 4.66833 6.46497 4.605 6.62497 4.545C6.79163 4.485 6.9683 4.43833 7.15497 4.405C7.34163 4.365 7.5383 4.345 7.74497 4.345C8.13163 4.345 8.46497 4.39167 8.74497 4.485C9.02497 4.57833 9.25497 4.71167 9.43497 4.885C9.62163 5.05167 9.7583 5.25167 9.84497 5.485C9.9383 5.71167 9.98497 5.96167 9.98497 6.235C9.98497 6.555 9.89497 6.84167 9.71497 7.095C9.54163 7.34833 9.31497 7.54167 9.03497 7.675C9.39497 7.80167 9.69163 8.01167 9.92497 8.305C10.165 8.59834 10.285 8.975 10.285 9.435C10.285 9.74167 10.2316 10.0283 10.125 10.295C10.0183 10.555 9.85497 10.7817 9.63497 10.975C9.41497 11.1617 9.13497 11.3117 8.79497 11.425C8.46163 11.5317 8.06163 11.585 7.59497 11.585Z" fill="white"/>
</svg>
