<svg width="16" height="16" viewBox="0 0 16 16" fill="none" xmlns="http://www.w3.org/2000/svg">
<path d="M16 8C16 12.4183 12.4183 16 8 16C3.58172 16 0 12.4183 0 8C0 3.58172 3.58172 0 8 0C12.4183 0 16 3.58172 16 8Z" fill="#483EFF"/>
<path d="M10.07 6.38001C10.07 6.62001 10.02 6.85668 9.91996 7.09001C9.81996 7.31668 9.68996 7.54001 9.52996 7.76001C9.37663 7.97335 9.19996 8.18335 8.99996 8.39001C8.79996 8.59001 8.59996 8.78668 8.39996 8.98001C8.29329 9.08001 8.17329 9.20001 8.03996 9.34001C7.90663 9.48001 7.77996 9.62001 7.65996 9.76001C7.53996 9.90001 7.43663 10.0367 7.34996 10.17C7.26329 10.2967 7.21663 10.4033 7.20996 10.49H10.29V11.51H5.87996C5.87329 11.4567 5.86996 11.3933 5.86996 11.32C5.86996 11.24 5.86996 11.18 5.86996 11.14C5.86996 10.82 5.91996 10.5267 6.01996 10.26C6.12663 9.98668 6.26329 9.73335 6.42996 9.50001C6.59663 9.26668 6.78329 9.04668 6.98996 8.84001C7.19663 8.63335 7.40329 8.43001 7.60996 8.23001C7.76996 8.07668 7.92329 7.92668 8.06996 7.78001C8.21663 7.63335 8.34329 7.49001 8.44996 7.35001C8.56329 7.20335 8.65329 7.05668 8.71996 6.91001C8.78663 6.75668 8.81996 6.60001 8.81996 6.44001C8.81996 6.09335 8.71996 5.84668 8.51996 5.70001C8.31996 5.55335 8.07663 5.48001 7.78996 5.48001C7.60329 5.48001 7.42996 5.50668 7.26996 5.56001C7.10996 5.61335 6.96663 5.67668 6.83996 5.75001C6.71996 5.82335 6.61329 5.90001 6.51996 5.98001C6.42663 6.05335 6.35663 6.11335 6.30996 6.16001L5.70996 5.31001C5.98996 5.04335 6.31663 4.83001 6.68996 4.67001C7.06996 4.50335 7.47663 4.42001 7.90996 4.42001C8.64996 4.42001 9.19329 4.59668 9.53996 4.95001C9.89329 5.29668 10.07 5.77335 10.07 6.38001Z" fill="white"/>
</svg>
